<svg id="Layer_1" data-name="Layer 1" xmlns="http://www.w3.org/2000/svg" viewBox="0 0 37.9 36.3">
  <defs>
    <style>
      .cls-1{isolation:isolate}
    </style>
  </defs>
  <path class="cls-1" d="M35.4 0C25.7 6.4 20.8 15.4 21 24.1c.1 6.2 4.3 12 8.9 12.2s7.8-3.7 8-8.6v-.2c0-3.8-2.2-7-5.3-7.9s-4.5.4-5.3-1.1a3.6 3.6 0 0 1-.3-2.2c.3-4.4 7.6-15.1 8.4-16.3zM14.4 0C4.8 6.4-.2 15.4 0 24.1c.1 6.2 4.3 12 8.9 12.2s7.8-3.7 8-8.6v-.2c0-3.8-2.1-7-5.3-7.9s-4.5.4-5.3-1.1a4.6 4.6 0 0 1-.3-2.2c.4-4.4 7.6-15.1 8.4-16.3z"/>
</svg>
