<svg xmlns="http://www.w3.org/2000/svg" viewBox="0 0 16 16"><defs><style>.cls-1{fill:#191919;}</style></defs><title>icon-youtube</title><g id="Icon_YouTube"><path class="cls-1" d="M15.84,4.87a3.37,3.37,0,0,0-.64-1.55,2.28,2.28,0,0,0-1.6-.66C11.36,2.5,8,2.5,8,2.5H8s-3.36,0-5.6.16a2.28,2.28,0,0,0-1.6.66A3.37,3.37,0,0,0,.16,4.87,23.23,23.23,0,0,0,0,7.4V8.59a23,23,0,0,0,.16,2.53A3.33,3.33,0,0,0,.8,12.67a2.66,2.66,0,0,0,1.76.67c1.28.12,5.44.16,5.44.16s3.36,0,5.6-.16a2.3,2.3,0,0,0,1.6-.67,3.33,3.33,0,0,0,.64-1.55A23,23,0,0,0,16,8.59V7.4A23.23,23.23,0,0,0,15.84,4.87ZM6.4,10V5.63l4.27,2.18Z"/></g></svg>