<?xml version="1.0" encoding="UTF-8" standalone="no"?><!DOCTYPE svg PUBLIC "-//W3C//DTD SVG 1.1//EN" "http://www.w3.org/Graphics/SVG/1.1/DTD/svg11.dtd"><svg width="100%" height="100%" viewBox="0 0 534 534" version="1.1" xmlns="http://www.w3.org/2000/svg" xmlns:xlink="http://www.w3.org/1999/xlink" xml:space="preserve" xmlns:serif="http://www.serif.com/" style="fill-rule:evenodd;clip-rule:evenodd;stroke-linecap:round;stroke-linejoin:round;stroke-miterlimit:1.5;"><rect id="Artboard4" x="0" y="0" width="533.333" height="533.333" style="fill:none;"/><g id="icon"><path d="M466.667,181.25c-0,-54.042 -43.875,-97.917 -97.917,-97.917l-195.833,0c-54.042,0 -97.917,43.875 -97.917,97.917l0,195.833c0,54.042 43.875,97.917 97.917,97.917l195.833,0c54.042,0 97.917,-43.875 97.917,-97.917l-0,-195.833Z" style="fill:#3089ea;"/><g><path d="M358.531,358.333c-18.397,0 -33.333,-14.936 -33.333,-33.333l-0,-150l-166.865,0l0,150c0,18.397 14.936,33.333 33.334,33.333l166.864,0Z" style="fill:#fff;"/><path d="M347.751,358.333c-18.397,0 -22.553,-14.936 -22.553,-33.333l-0,-150l-166.865,0l0,150c0,18.397 14.936,33.333 33.334,33.333l156.084,0Z" style="fill:#fff;fill-opacity:0;stroke:#43435b;stroke-width:16.67px;"/></g><g><path id="fill-shape" serif:id="fill shape" d="M375.295,208.333l-50,0l-0,125c-0,13.798 11.202,25 25,25c13.798,0 25,-11.202 25,-25l-0,-125Z" style="fill:#59c9c9;"/><rect id="shadow" x="325.295" y="208.333" width="24.957" height="150" style="fill:#043435;fill-opacity:0.24;"/><path id="fill-shape1" serif:id="fill shape" d="M375.295,208.333l-50,0l-0,125c-0,13.798 11.202,25 25,25c13.798,0 25,-11.202 25,-25l-0,-125Z" style="fill:none;stroke:#43435b;stroke-width:16.67px;"/></g><rect x="193.336" y="219.037" width="99.965" height="0.077" style="fill:#43435b;stroke:#43435b;stroke-width:16.67px;"/><rect x="193.336" y="254.331" width="99.965" height="0.077" style="fill:#43435b;stroke:#43435b;stroke-width:16.67px;"/><rect x="193.336" y="291.831" width="99.965" height="0.077" style="fill:#43435b;stroke:#43435b;stroke-width:16.67px;"/><g><path id="fill-shape2" serif:id="fill shape" d="M284.991,176.182l-25.214,-12.941l-51.724,100.783c-3.571,6.958 -0.821,15.506 6.137,19.077c6.958,3.571 15.506,0.821 19.077,-6.137l51.724,-100.782Z" style="fill:#59c9c9;"/><path id="shadow1" serif:id="shadow" d="M272.362,169.7l-12.585,-6.459l-58.198,113.398l12.585,6.459l58.198,-113.398Z" style="fill:#043435;fill-opacity:0.24;"/><path d="M286.439,176.442l-28.34,-14.545l-57.718,112.461l28.341,14.544l57.717,-112.46Z" style="fill:none;stroke:#5e2f00;stroke-width:12.5px;stroke-linecap:butt;"/><path d="M192.486,324.737l1.633,-51.326l39.114,20.075l-40.747,31.251Z" style="fill:#ffe6c9;"/><path d="M192.325,325.112l0.986,-27.295l20.616,10.58l-21.602,16.715Z" style="fill:#2e2e2e;"/></g><rect x="216.667" y="391.667" width="0.073" height="25" style="fill:#43435b;stroke:#43435b;stroke-width:16.67px;"/><rect x="316.667" y="391.866" width="0.073" height="25" style="fill:#43435b;stroke:#43435b;stroke-width:16.67px;"/><rect x="266.667" y="391.554" width="0.073" height="33.333" style="fill:#43435b;stroke:#43435b;stroke-width:16.67px;"/></g></svg>