<?xml version="1.0" encoding="UTF-8" standalone="no"?><!DOCTYPE svg PUBLIC "-//W3C//DTD SVG 1.1//EN" "http://www.w3.org/Graphics/SVG/1.1/DTD/svg11.dtd"><svg width="100%" height="100%" viewBox="0 0 534 534" version="1.1" xmlns="http://www.w3.org/2000/svg" xmlns:xlink="http://www.w3.org/1999/xlink" xml:space="preserve" xmlns:serif="http://www.serif.com/" style="fill-rule:evenodd;clip-rule:evenodd;stroke-linecap:round;stroke-linejoin:round;stroke-miterlimit:1.5;"><rect id="Artboard1" x="0" y="0" width="533.333" height="533.333" style="fill:none;"/><g id="Artboard11" serif:id="Artboard1"><g id="icon"><path d="M466.667,181.25c-0,-54.042 -43.875,-97.917 -97.917,-97.917l-195.833,0c-54.042,0 -97.917,43.875 -97.917,97.917l0,195.833c0,54.042 43.875,97.917 97.917,97.917l195.833,0c54.042,0 97.917,-43.875 97.917,-97.917l-0,-195.833Z" style="fill:#ea702e;"/><g><path d="M358.531,358.333c-18.397,0 -33.333,-14.936 -33.333,-33.333l-0,-150l-166.865,0l0,150c0,18.397 14.936,33.333 33.334,33.333l166.864,0Z" style="fill:#fff;"/><path d="M347.751,358.333c-18.397,0 -22.553,-14.936 -22.553,-33.333l-0,-150l-166.865,0l0,150c0,18.397 14.936,33.333 33.334,33.333l156.084,0Z" style="fill:#fff;fill-opacity:0;stroke:#43435b;stroke-width:16.67px;"/></g><g><path id="fill-shape" serif:id="fill shape" d="M375.295,208.333l-50,0l-0,125c-0,13.798 11.202,25 25,25c13.798,0 25,-11.202 25,-25l-0,-125Z" style="fill:#59c9c9;"/><rect id="shadow" x="325.295" y="208.333" width="24.957" height="150" style="fill:#043435;fill-opacity:0.24;"/><path id="fill-shape1" serif:id="fill shape" d="M375.295,208.333l-50,0l-0,125c-0,13.798 11.202,25 25,25c13.798,0 25,-11.202 25,-25l-0,-125Z" style="fill:none;stroke:#43435b;stroke-width:16.67px;"/></g><rect x="191.667" y="241.667" width="33.491" height="0.099" style="fill:#43435b;stroke:#43435b;stroke-width:16.67px;"/><rect x="258.333" y="241.667" width="33.491" height="0.099" style="fill:#43435b;stroke:#43435b;stroke-width:16.67px;"/><path d="M287.032,292.115l-23.681,23.682l0.07,0.07l23.682,-23.681l-0.071,-0.071Z" style="fill:#43435b;stroke:#43435b;stroke-width:16.67px;"/><circle cx="263.208" cy="293.757" r="9.583" style="fill:#43435b;"/><circle cx="286.841" cy="314.583" r="9.579" style="fill:#43435b;"/><rect x="208.541" y="225" width="0.131" height="33.333" style="fill:#43435b;stroke:#43435b;stroke-width:16.67px;"/><path d="M220.253,316.007l-23.682,-23.681l-0.07,0.07l23.681,23.682l0.071,-0.071Z" style="fill:#43435b;stroke:#43435b;stroke-width:16.67px;"/><path d="M220.381,292.566l-0.093,-0.093l-23.57,23.57l0.093,0.093l23.57,-23.57Z" style="fill:#43435b;stroke:#43435b;stroke-width:16.67px;"/><rect x="216.667" y="391.667" width="0.073" height="25" style="fill:#43435b;stroke:#43435b;stroke-width:16.67px;"/><rect x="316.667" y="391.866" width="0.073" height="25" style="fill:#43435b;stroke:#43435b;stroke-width:16.67px;"/><rect x="266.667" y="391.554" width="0.073" height="33.333" style="fill:#43435b;stroke:#43435b;stroke-width:16.67px;"/></g></g></svg>